<svg width="642" height="232" viewBox="0 0 642 232" fill="none" xmlns="http://www.w3.org/2000/svg">
<path d="M232.565 169.84H207.605V202H161.285V169.84H72.4847V138.88L147.845 34H197.045L128.645 132.16H162.725V103.6H207.605V132.16H232.565V169.84ZM321.172 205.36C306.772 205.36 293.972 201.92 282.772 195.04C271.572 188.16 262.772 178.16 256.372 165.04C250.132 151.76 247.012 136.08 247.012 118C247.012 99.92 250.132 84.32 256.372 71.2C262.772 57.92 271.572 47.84 282.772 40.96C293.972 34.08 306.772 30.64 321.172 30.64C335.412 30.64 348.132 34.08 359.332 40.96C370.532 47.84 379.252 57.92 385.492 71.2C391.892 84.32 395.092 99.92 395.092 118C395.092 136.08 391.892 151.76 385.492 165.04C379.252 178.16 370.532 188.16 359.332 195.04C348.132 201.92 335.412 205.36 321.172 205.36ZM321.172 166.48C329.172 166.48 335.492 162.64 340.132 154.96C344.932 147.12 347.332 134.8 347.332 118C347.332 101.2 344.932 88.96 340.132 81.28C335.492 73.44 329.172 69.52 321.172 69.52C313.012 69.52 306.532 73.44 301.732 81.28C297.092 88.96 294.772 101.2 294.772 118C294.772 134.8 297.092 147.12 301.732 154.96C306.532 162.64 313.012 166.48 321.172 166.48ZM574.508 169.84H549.548V202H503.228V169.84H414.428V138.88L489.788 34H538.988L470.588 132.16H504.668V103.6H549.548V132.16H574.508V169.84Z" fill="black"/>
<path d="M232.565 169.84V171.84H234.565V169.84H232.565ZM207.605 169.84V167.84H205.605V169.84H207.605ZM207.605 202V204H209.605V202H207.605ZM161.285 202H159.285V204H161.285V202ZM161.285 169.84H163.285V167.84H161.285V169.84ZM72.4847 169.84H70.4847V171.84H72.4847V169.84ZM72.4847 138.88L70.8605 137.713L70.4847 138.236V138.88H72.4847ZM147.845 34V32H146.819L146.22 32.8329L147.845 34ZM197.045 34L198.686 35.1434L200.876 32H197.045V34ZM128.645 132.16L127.004 131.017L124.813 134.16H128.645V132.16ZM162.725 132.16V134.16H164.725V132.16H162.725ZM162.725 103.6V101.6H160.725V103.6H162.725ZM207.605 103.6H209.605V101.6H207.605V103.6ZM207.605 132.16H205.605V134.16H207.605V132.16ZM232.565 132.16H234.565V130.16H232.565V132.16ZM232.565 167.84H207.605V171.84H232.565V167.84ZM205.605 169.84V202H209.605V169.84H205.605ZM207.605 200H161.285V204H207.605V200ZM163.285 202V169.84H159.285V202H163.285ZM161.285 167.84H72.4847V171.84H161.285V167.84ZM74.4847 169.84V138.88H70.4847V169.84H74.4847ZM74.1089 140.047L149.469 35.167L146.22 32.8329L70.8605 137.713L74.1089 140.047ZM147.845 36H197.045V32H147.845V36ZM195.404 32.8566L127.004 131.017L130.286 133.303L198.686 35.1434L195.404 32.8566ZM128.645 134.16H162.725V130.16H128.645V134.16ZM164.725 132.16V103.6H160.725V132.16H164.725ZM162.725 105.6H207.605V101.6H162.725V105.6ZM205.605 103.6V132.16H209.605V103.6H205.605ZM207.605 134.16H232.565V130.16H207.605V134.16ZM230.565 132.16V169.84H234.565V132.16H230.565ZM282.772 195.04L281.725 196.744L282.772 195.04ZM256.372 165.04L254.561 165.891L254.568 165.904L254.574 165.917L256.372 165.04ZM256.372 71.2L254.57 70.3317L254.565 70.341L256.372 71.2ZM282.772 40.96L283.818 42.6642L282.772 40.96ZM359.332 40.96L358.285 42.6642L359.332 40.96ZM385.492 71.2L383.681 72.0505L383.688 72.0637L383.694 72.0768L385.492 71.2ZM385.492 165.04L383.69 164.172L383.685 164.181L385.492 165.04ZM359.332 195.04L360.378 196.744L359.332 195.04ZM340.132 154.96L338.426 153.916L338.42 153.926L340.132 154.96ZM340.132 81.28L338.41 82.2986L338.423 82.3195L338.436 82.34L340.132 81.28ZM301.732 81.28L300.026 80.2357L300.02 80.2458L301.732 81.28ZM301.732 154.96L300.01 155.979L300.023 155.999L300.036 156.02L301.732 154.96ZM321.172 203.36C307.105 203.36 294.674 200.004 283.818 193.336L281.725 196.744C293.269 203.836 306.439 207.36 321.172 207.36V203.36ZM283.818 193.336C272.977 186.676 264.422 176.981 258.169 164.163L254.574 165.917C261.122 179.339 270.166 189.644 281.725 196.744L283.818 193.336ZM258.182 164.189C252.092 151.23 249.012 135.853 249.012 118H245.012C245.012 136.307 248.171 152.29 254.561 165.891L258.182 164.189ZM249.012 118C249.012 100.146 252.093 84.8533 258.178 72.059L254.565 70.341C248.171 83.7867 245.012 99.6936 245.012 118H249.012ZM258.173 72.0683C264.428 59.0902 272.984 49.3198 283.818 42.6642L281.725 39.2558C270.16 46.3601 261.115 56.7498 254.57 70.3317L258.173 72.0683ZM283.818 42.6642C294.674 35.9958 307.105 32.64 321.172 32.64V28.64C306.439 28.64 293.269 32.1641 281.725 39.2558L283.818 42.6642ZM321.172 32.64C335.074 32.64 347.426 35.9937 358.285 42.6642L360.378 39.2558C348.837 32.1663 335.749 28.64 321.172 28.64V32.64ZM358.285 42.6642C369.115 49.3168 377.587 59.0809 383.681 72.0505L387.302 70.3494C380.916 56.7591 371.948 46.3632 360.378 39.2558L358.285 42.6642ZM383.694 72.0768C389.933 84.8665 393.092 100.153 393.092 118H397.092C397.092 99.687 393.85 83.7735 387.289 70.3232L383.694 72.0768ZM393.092 118C393.092 135.846 389.933 151.217 383.69 164.172L387.293 165.908C393.85 152.303 397.092 136.314 397.092 118H393.092ZM383.685 164.181C377.593 176.99 369.121 186.679 358.285 193.336L360.378 196.744C371.942 189.641 380.91 179.33 387.298 165.899L383.685 164.181ZM358.285 193.336C347.426 200.006 335.074 203.36 321.172 203.36V207.36C335.749 207.36 348.837 203.834 360.378 196.744L358.285 193.336ZM321.172 168.48C329.968 168.48 336.894 164.187 341.843 155.994L338.42 153.926C334.089 161.093 328.375 164.48 321.172 164.48V168.48ZM341.837 156.004C346.931 147.684 349.332 134.908 349.332 118H345.332C345.332 134.692 342.932 146.556 338.426 153.916L341.837 156.004ZM349.332 118C349.332 101.098 346.933 88.3891 341.828 80.22L338.436 82.34C342.93 89.5309 345.332 101.302 345.332 118H349.332ZM341.853 80.2614C336.912 71.9139 329.988 67.52 321.172 67.52V71.52C328.355 71.52 334.071 74.9661 338.41 82.2986L341.853 80.2614ZM321.172 67.52C312.217 67.52 305.135 71.8914 300.026 80.2357L303.437 82.3243C307.929 74.9885 313.807 71.52 321.172 71.52V67.52ZM300.02 80.2458C295.089 88.4073 292.772 101.104 292.772 118H296.772C296.772 101.296 299.094 89.5127 303.443 82.3142L300.02 80.2458ZM292.772 118C292.772 134.901 295.091 147.666 300.01 155.979L303.453 153.941C299.092 146.574 296.772 134.699 296.772 118H292.772ZM300.036 156.02C305.153 164.208 312.236 168.48 321.172 168.48V164.48C313.787 164.48 307.91 161.072 303.428 153.9L300.036 156.02ZM574.508 169.84V171.84H576.508V169.84H574.508ZM549.548 169.84V167.84H547.548V169.84H549.548ZM549.548 202V204H551.548V202H549.548ZM503.228 202H501.228V204H503.228V202ZM503.228 169.84H505.228V167.84H503.228V169.84ZM414.428 169.84H412.428V171.84H414.428V169.84ZM414.428 138.88L412.804 137.713L412.428 138.236V138.88H414.428ZM489.788 34V32H488.763L488.164 32.8329L489.788 34ZM538.988 34L540.629 35.1434L542.82 32H538.988V34ZM470.588 132.16L468.948 131.017L466.757 134.16H470.588V132.16ZM504.668 132.16V134.16H506.668V132.16H504.668ZM504.668 103.6V101.6H502.668V103.6H504.668ZM549.548 103.6H551.548V101.6H549.548V103.6ZM549.548 132.16H547.548V134.16H549.548V132.16ZM574.508 132.16H576.508V130.16H574.508V132.16ZM574.508 167.84H549.548V171.84H574.508V167.84ZM547.548 169.84V202H551.548V169.84H547.548ZM549.548 200H503.228V204H549.548V200ZM505.228 202V169.84H501.228V202H505.228ZM503.228 167.84H414.428V171.84H503.228V167.84ZM416.428 169.84V138.88H412.428V169.84H416.428ZM416.053 140.047L491.413 35.167L488.164 32.8329L412.804 137.713L416.053 140.047ZM489.788 36H538.988V32H489.788V36ZM537.348 32.8566L468.948 131.017L472.229 133.303L540.629 35.1434L537.348 32.8566ZM470.588 134.16H504.668V130.16H470.588V134.16ZM506.668 132.16V103.6H502.668V132.16H506.668ZM504.668 105.6H549.548V101.6H504.668V105.6ZM547.548 103.6V132.16H551.548V103.6H547.548ZM549.548 134.16H574.508V130.16H549.548V134.16ZM572.508 132.16V169.84H576.508V132.16H572.508Z" fill="black"/>
<ellipse cx="323" cy="115.5" rx="31" ry="61.5" fill="black"/>
<path d="M322.67 157H283L326.347 75.0789L365 75L322.67 157Z" fill="white"/>
</svg>
