<svg width="107" height="22" viewBox="0 0 107 22" fill="none" xmlns="http://www.w3.org/2000/svg">
<g opacity="0.4">
<g clip-path="url(#clip0)">
<path d="M22.0078 13.6604C20.5158 19.5543 14.4546 23.1396 8.46916 21.6704C2.48685 20.2012 -1.15518 14.2324 0.337517 8.3398C1.82882 2.44586 7.88968 -1.14048 13.873 0.328705C19.8578 1.79789 23.4995 7.76745 22.0075 13.6604H22.0078Z" fill="#F7931A"/>
<path d="M16.0962 9.4328C16.3185 7.96911 15.1868 7.18226 13.6393 6.65736L14.1413 4.67461L12.9156 4.37383L12.4269 6.30433C12.1005 6.22534 11.7732 6.14948 11.4453 6.07676L11.9375 4.13354L10.7122 3.83276L10.2102 5.81483C9.94352 5.75501 9.6817 5.69589 9.42757 5.63367L9.42896 5.62748L7.73868 5.21189L7.41264 6.50095C7.41264 6.50095 8.32201 6.70617 8.30281 6.71889C8.79921 6.84092 8.88893 7.16439 8.87391 7.42083L8.30211 9.67961C8.33632 9.6882 8.38065 9.70092 8.42953 9.71983L8.30002 9.6882L7.49851 12.8524C7.43777 13.0009 7.28382 13.2237 6.93648 13.1391C6.94905 13.1566 6.04596 12.9201 6.04596 12.9201L5.4375 14.302L7.03248 14.6939C7.3292 14.7668 7.61999 14.8434 7.90625 14.9156L7.39902 16.921L8.62327 17.2218L9.12526 15.2374C9.45968 15.3271 9.78433 15.4092 10.102 15.4873L9.60141 17.4621L10.8267 17.7629L11.3343 15.7612C13.4243 16.1507 14.9959 15.9936 15.6574 14.1325C16.1904 12.6338 15.6308 11.7693 14.5312 11.2052C15.332 11.023 15.9353 10.5043 16.0962 9.4328ZM13.2955 13.2993C12.9167 14.798 10.354 13.9882 9.52322 13.7847L10.1963 11.1278C11.0271 11.3324 13.6913 11.7366 13.2955 13.2993ZM13.6746 9.41148C13.329 10.7745 11.196 10.0818 10.5042 9.91198L11.1144 7.5023C11.8062 7.67211 14.0345 7.98905 13.6746 9.41114V9.41148Z" fill="white"/>
<path d="M32.737 6.65528C33.6429 6.65528 34.4255 6.81512 35.0829 7.12897C35.744 7.44591 36.2893 7.87284 36.7267 8.40978C37.1582 8.94947 37.4794 9.58025 37.6867 10.3032C37.8927 11.0285 37.996 11.8074 37.996 12.6413C37.996 13.9235 37.7576 15.1335 37.2762 16.2748C36.7944 17.4177 36.1417 18.4095 35.3108 19.2551C34.4807 20.0997 33.5005 20.7652 32.3701 21.2571C31.2415 21.7493 30.0145 21.9955 28.697 21.9955C28.5267 21.9955 28.2271 21.9907 27.804 21.9821C27.381 21.9735 26.8947 21.9305 26.3501 21.8583C25.7647 21.776 25.1841 21.6638 24.6106 21.5221C24.0104 21.3794 23.4273 21.1743 22.8711 20.9102L27.7625 0.670936L32.1436 0.00268555L30.3922 7.18466C30.7564 7.02256 31.1344 6.89235 31.5218 6.79553C31.9195 6.70035 32.3274 6.65325 32.7367 6.65528H32.737ZM29.0622 18.5731C29.7219 18.5731 30.3433 18.4132 30.9277 18.0998C31.5151 17.7836 32.0305 17.3524 32.4424 16.8327C32.8728 16.2908 33.2114 15.6841 33.4453 15.0359C33.6905 14.3659 33.8151 13.6588 33.8132 12.9466C33.8132 12.0556 33.6621 11.3619 33.3608 10.859C33.0596 10.3588 32.5021 10.1072 31.6922 10.1072C31.4269 10.1072 31.0855 10.1571 30.6617 10.2461C30.2365 10.3406 29.856 10.5369 29.5149 10.8322L27.6498 18.4593C27.7622 18.4789 27.8616 18.4975 27.9465 18.515C28.0296 18.5339 28.121 18.5473 28.2128 18.5566C28.3095 18.5672 28.4202 18.5728 28.5539 18.5728L29.0618 18.5731H29.0622ZM42.5394 21.6084H38.3549L41.8887 6.96569H46.1018L42.5394 21.6084ZM44.5756 5.18162C44.0047 5.18629 43.4482 5.00555 42.9921 4.66737C42.5184 4.32637 42.2835 3.80147 42.2835 3.09403C42.2835 2.7049 42.3638 2.33984 42.5233 1.9954C42.6775 1.66175 42.8937 1.35943 43.1608 1.10406C43.4284 0.852477 43.7393 0.649619 44.0789 0.504904C44.4323 0.356179 44.813 0.280593 45.1973 0.282842C45.781 0.282842 46.3074 0.454029 46.7794 0.797092C47.2493 1.14187 47.4856 1.66678 47.4856 2.37044C47.4879 2.75025 47.4057 3.12595 47.2447 3.47112C47.0921 3.8051 46.8765 4.10756 46.6094 4.36247C46.3423 4.61438 46.0313 4.81677 45.6913 4.9599C45.3415 5.11047 44.9708 5.18162 44.5756 5.18162ZM49.769 3.31747L54.1518 2.64887L53.0755 6.965H57.7694L56.9218 10.3606H52.2562L51.0135 15.4824C50.899 15.909 50.8341 16.3078 50.8159 16.6787C50.795 17.051 50.8431 17.3707 50.9562 17.6398C51.0686 17.9097 51.2704 18.1176 51.5636 18.2644C51.8558 18.4139 52.2737 18.4892 52.8218 18.4892C53.2731 18.4892 53.7133 18.4469 54.1378 18.3631C54.574 18.2779 55.0033 18.1619 55.4225 18.0159L55.7352 21.1904C55.1347 21.4045 54.5209 21.5808 53.8976 21.7181C53.2368 21.8679 52.4545 21.9398 51.5504 21.9398C50.2504 21.9398 49.2426 21.7497 48.5245 21.3716C47.8075 20.9907 47.3006 20.4696 46.9972 19.8102C46.6981 19.1537 46.5644 18.3964 46.6017 17.5429C46.6401 16.6876 46.7714 15.7884 46.9972 14.842L49.769 3.31747ZM57.5854 15.7616C57.5854 14.5 57.7928 13.311 58.2068 12.1972C58.6204 11.0828 59.2163 10.1082 59.9892 9.27225C60.7597 8.44037 61.6984 7.78072 62.8036 7.29672C63.9025 6.81547 65.1341 6.57278 66.4906 6.57278C67.3403 6.57278 68.0989 6.65184 68.7667 6.81031C69.4369 6.97016 70.0429 7.17675 70.5914 7.43594L69.1486 10.6672C68.764 10.515 68.3725 10.3803 67.9753 10.2636C67.5704 10.1409 67.0764 10.0818 66.4917 10.0818C65.0946 10.0818 63.9908 10.5562 63.1691 11.5008C62.3501 12.4464 61.9378 13.7193 61.9378 15.3164C61.9378 16.2627 62.1455 17.0276 62.5616 17.613C62.9757 18.1984 63.7405 18.4899 64.851 18.4899C65.3987 18.4899 65.9279 18.4335 66.4344 18.3235C66.9448 18.2122 67.3955 18.0719 67.7924 17.9062L68.1052 21.2186C67.5326 21.4348 66.9473 21.6167 66.3524 21.7631C65.7101 21.9178 64.9466 21.9975 64.061 21.9975C62.8922 21.9975 61.9022 21.8294 61.093 21.4974C60.2832 21.1608 59.614 20.7136 59.0865 20.1471C58.5566 19.5792 58.1764 18.9158 57.9411 18.1551C57.7058 17.3944 57.5851 16.5945 57.5851 15.7616H57.5854ZM76.1743 21.9965C75.1756 21.9965 74.3077 21.8466 73.5719 21.55C72.8381 21.2537 72.2307 20.837 71.7496 20.2973C71.2679 19.7604 70.908 19.1241 70.6612 18.3909C70.4144 17.658 70.2957 16.8464 70.2957 15.9572C70.2957 14.842 70.4772 13.7269 70.8451 12.6142C71.2113 11.5004 71.7542 10.4987 72.4719 9.60878C73.1851 8.71744 74.0648 7.98869 75.0995 7.42047C76.1338 6.85603 77.3232 6.57209 78.6598 6.57209C79.6404 6.57209 80.503 6.72231 81.2494 7.01897C81.9919 7.31494 82.6035 7.73465 83.0869 8.27159C83.5652 8.81128 83.9289 9.44481 84.1726 10.1794C84.4191 10.9106 84.5405 11.7242 84.5405 12.6142C84.5405 13.7259 84.3611 14.8417 84.0054 15.9568C83.649 17.0671 83.1201 18.0709 82.4219 18.9626C81.7252 19.8529 80.8542 20.5809 79.8073 21.1467C78.7624 21.7129 77.5501 21.9965 76.1743 21.9965ZM78.2654 10.0821C77.645 10.0821 77.0966 10.2592 76.6271 10.6094C76.1558 10.9638 75.7603 11.4097 75.4412 11.9466C75.1187 12.4863 74.8799 13.0748 74.7183 13.7145C74.5577 14.3556 74.4791 14.9623 74.4791 15.5374C74.4791 16.4666 74.6317 17.1909 74.9305 17.7113C75.2335 18.229 75.7788 18.4899 76.5705 18.4899C77.193 18.4899 77.7389 18.3136 78.2109 17.9598C78.6794 17.6082 79.0759 17.1623 79.3971 16.6237C79.7176 16.0874 79.9588 15.4969 80.1204 14.8558C80.2785 14.2167 80.3592 13.6073 80.3592 13.0325C80.3592 12.1058 80.2077 11.3805 79.9054 10.8604C79.6045 10.3423 79.0567 10.0818 78.2654 10.0818V10.0821ZM89.1007 21.6084H84.913L88.4468 6.96569H92.6617L89.1007 21.6084ZM91.1338 5.18162C90.5634 5.18637 90.0074 5.0056 89.552 4.66737C89.0801 4.32637 88.8434 3.80147 88.8434 3.09403C88.8434 2.7049 88.9251 2.33984 89.0843 1.9954C89.2374 1.66135 89.4535 1.3589 89.721 1.10406C89.989 0.852387 90.3002 0.649525 90.6402 0.504904C90.9922 0.35615 91.3717 0.280552 91.7548 0.282842C92.3402 0.282842 92.8684 0.454029 93.3393 0.797092C93.8102 1.14187 94.0476 1.66678 94.0476 2.37044C94.0476 2.76094 93.9631 3.12737 93.805 3.47112C93.6469 3.81487 93.4342 4.11084 93.171 4.36247C92.9035 4.61378 92.5926 4.81609 92.2529 4.9599C91.9021 5.11047 91.5314 5.18162 91.1338 5.18162ZM95.6775 7.63153C95.9952 7.54009 96.3498 7.43009 96.7352 7.31047C97.164 7.17954 97.5989 7.06896 98.0384 6.97909C98.5163 6.87597 99.0556 6.79175 99.6487 6.72678C100.241 6.66044 100.918 6.62812 101.668 6.62812C103.875 6.62812 105.396 7.26097 106.236 8.52287C107.076 9.78478 107.221 11.5114 106.676 13.7008L104.751 21.607H100.539L102.405 13.8668C102.519 13.3838 102.608 12.9163 102.674 12.4598C102.741 12.0075 102.737 11.6084 102.659 11.2636C102.591 10.933 102.406 10.6369 102.138 10.4272C101.862 10.2145 101.444 10.1076 100.879 10.1076C100.319 10.1097 99.7604 10.1664 99.2116 10.2767L96.4689 21.606H92.2554L95.6775 7.63153Z" fill="#4D4D4D"/>
</g>
</g>
<defs>
<clipPath id="clip0">
<rect width="107" height="22" fill="white"/>
</clipPath>
</defs>
</svg>
