<svg width="186" height="28" viewBox="0 0 186 28" fill="none" xmlns="http://www.w3.org/2000/svg">
<path d="M83.8082 27.0559H52.4411C50.4713 27.0559 48.874 25.462 48.874 23.4964V3.55948C48.8728 1.5939 50.4701 0 52.4411 0H83.8082C85.778 0 87.3753 1.5939 87.3753 3.55948V23.4952C87.3753 25.462 85.778 27.0559 83.8082 27.0559Z" fill="#0066B2"/>
<path d="M66.4909 17.7661H64.4854L65.7388 10.0801H67.7444L66.4909 17.7661Z" fill="white"/>
<path d="M62.7989 10.0806L60.8865 15.3674L60.6608 14.2285L59.9863 10.7727C59.9863 10.7727 59.9052 10.0806 59.0349 10.0806H55.8749L55.8379 10.2104C55.8379 10.2104 56.8049 10.4105 57.9354 11.0896L59.6772 17.7666H61.7663L64.9573 10.0806H62.7989Z" fill="white"/>
<path d="M78.5736 17.7661H80.4144L78.8088 10.0801H77.1959C76.451 10.0801 76.2707 10.6531 76.2707 10.6531L73.2803 17.7661H75.3706L75.7884 16.6249H78.3372L78.5736 17.7661ZM76.3662 15.0464L77.4204 12.1695L78.0137 15.0464H76.3662Z" fill="white"/>
<path d="M73.4365 11.9272L73.723 10.2761C73.723 10.2761 72.8396 9.94141 71.9192 9.94141C70.9236 9.94141 68.561 10.3762 68.561 12.4859C68.561 14.4718 71.3342 14.4968 71.3342 15.5391C71.3342 16.5815 68.8463 16.3956 68.025 15.7381L67.7266 17.463C67.7266 17.463 68.6219 17.8978 69.99 17.8978C71.3581 17.8978 73.4234 17.1902 73.4234 15.2663C73.4234 13.2674 70.6251 13.0816 70.6251 12.2131C70.6263 11.3435 72.5794 11.4555 73.4365 11.9272Z" fill="white"/>
<path d="M60.6608 14.2285L59.9863 10.7727C59.9863 10.7727 59.9052 10.0806 59.0349 10.0806H55.8749L55.8379 10.2104C55.8379 10.2104 57.3576 10.5249 58.814 11.7019C60.206 12.8264 60.6608 14.2285 60.6608 14.2285Z" fill="#F9A533"/>
<path d="M34.9342 27.0559H3.56708C1.59731 27.0559 6.68735e-07 25.462 6.68735e-07 23.4964V3.55948C-0.00119313 1.5939 1.59611 0 3.56708 0H34.9342C36.904 0 38.5013 1.5939 38.5013 3.55948V23.4952C38.5013 25.462 36.904 27.0559 34.9342 27.0559Z" fill="#0EB200"/>
<path d="M14.5567 10.0376V18.2922H13.7195V11.6885L10.4766 17.2427H10.0639L6.82097 11.7239V18.2922H5.98372V10.0376H6.70305L10.2879 16.1578L13.8374 10.0376H14.5567ZM17.3384 10.0376H18.1993V16.8772L23.4822 10.0376H24.2723V18.2922H23.4115V11.4645L18.1285 18.2922H17.3384V10.0376ZM30.1474 10.0376C31.2009 10.0376 32.0263 10.2892 32.6238 10.7923C33.2213 11.2955 33.52 11.9873 33.52 12.8678C33.52 13.7483 33.2213 14.4401 32.6238 14.9432C32.0263 15.4385 31.2009 15.6861 30.1474 15.6861H27.9305V18.2922H27.0579V10.0376H30.1474ZM30.1239 14.9196C30.9415 14.9196 31.5664 14.7428 31.9988 14.389C32.4312 14.0274 32.6474 13.5203 32.6474 12.8678C32.6474 12.1995 32.4312 11.6885 31.9988 11.3348C31.5664 10.9731 30.9415 10.7923 30.1239 10.7923H27.9305V14.9196H30.1239Z" fill="black"/>
<path d="M133.201 27.0559H101.834C99.8639 27.0559 98.2666 25.462 98.2666 23.4964V3.55948C98.2666 1.5939 99.8639 0 101.834 0H133.201C135.171 0 136.768 1.5939 136.768 3.55948V23.4952C136.768 25.462 135.171 27.0559 133.201 27.0559Z" fill="#36495D"/>
<path d="M120.75 7.72754H114.282V19.3268H120.75V7.72754Z" fill="#F16522"/>
<path d="M114.693 13.5291C114.693 11.1764 115.797 9.08095 117.516 7.73006C116.258 6.7425 114.673 6.15283 112.948 6.15283C108.865 6.15283 105.556 9.45619 105.556 13.5303C105.556 17.6044 108.865 20.9078 112.948 20.9078C114.673 20.9078 116.258 20.3181 117.516 19.3305C115.797 17.9773 114.693 15.8818 114.693 13.5291Z" fill="#E41B24"/>
<path d="M129.477 13.5265C129.477 17.6006 126.168 20.9039 122.085 20.9039C120.36 20.9039 118.775 20.3142 117.517 19.3267C119.236 17.9758 120.34 15.8804 120.34 13.5276C120.34 11.1749 119.236 9.07948 117.517 7.72859C118.774 6.74104 120.36 6.15137 122.085 6.15137C126.168 6.15018 129.477 9.45354 129.477 13.5265ZM128.772 18.0985V17.8614H128.867V17.8138H128.623V17.8614H128.718V18.0985H128.772ZM129.247 18.0985V17.8126H129.172L129.086 18.0092L129 17.8126H128.925V18.0985H128.977V17.8829L129.058 18.0699H129.113L129.194 17.8829V18.0997H129.247V18.0985Z" fill="#F89E1C"/>
<path d="M182.432 27.0559H151.065C149.095 27.0559 147.498 25.462 147.498 23.4964V3.55948C147.498 1.5939 149.095 0 151.065 0H182.432C184.402 0 185.999 1.5939 185.999 3.55948V23.4952C185.999 25.462 184.402 27.0559 182.432 27.0559Z" fill="#006FCF"/>
<mask id="mask0" mask-type="alpha" maskUnits="userSpaceOnUse" x="147" y="6" width="39" height="17">
<path d="M147.497 6.41431V22.1354H185.972V6.41431H147.497Z" fill="white"/>
</mask>
<g mask="url(#mask0)">
<path d="M181.259 13.1211H184.147V6.41431H181.065V7.48644L180.378 6.41431H177.691V7.77115L177.089 6.41431H172.647C172.433 6.41431 172.226 6.42979 172.024 6.46196C171.852 6.48936 171.685 6.52748 171.524 6.57751C171.397 6.61682 171.274 6.66328 171.156 6.71808C171.016 6.78241 170.884 6.85507 170.757 6.93965V6.70855V6.41431H156.259L155.863 7.58412L155.461 6.41431H152.087V7.78545L151.479 6.41431H148.727L147.496 9.28286V12.5243V13.1211H149.446L149.808 12.1586H150.495L150.864 13.1211H165.86V12.1455L166.611 13.1211H170.755V12.9067V12.6339C170.862 12.703 170.973 12.7637 171.086 12.8161C171.199 12.8685 171.315 12.9126 171.432 12.9507C171.576 12.9984 171.724 13.0329 171.87 13.0603C172.109 13.1032 172.347 13.1223 172.573 13.1223H175.053L175.416 12.1597H176.102L176.471 13.1223H180.628V12.1276L181.259 13.1211ZM185.972 21.722V15.4286H185.636H162.105L161.496 16.2875L160.894 15.4286H154.03V22.1354H160.868L161.464 21.2633L162.078 22.1354H166.358V20.688H166.313C166.845 20.688 167.329 20.5915 167.757 20.433V22.1354H170.742V21.1597L171.493 22.1354H184.443C184.816 22.1354 185.165 22.0722 185.478 21.959C185.656 21.8947 185.821 21.8149 185.972 21.722Z" fill="#F7F7F7"/>
<mask id="mask1" mask-type="alpha" maskUnits="userSpaceOnUse" x="155" y="16" width="31" height="6">
<path d="M185.998 21.0437V16.5205H155.086V21.0437H185.998Z" fill="white"/>
</mask>
<g mask="url(#mask1)">
<path d="M184.468 20.1398H182.144V21.0452H184.436C185.415 21.0452 185.998 20.4507 185.998 19.6037C185.998 18.7961 185.474 18.3243 184.593 18.3243H183.543C183.284 18.3243 183.103 18.1564 183.103 17.8907C183.103 17.6191 183.283 17.438 183.543 17.438H185.512L185.914 16.5208H183.577C182.599 16.5208 182.016 17.1152 182.016 17.9288C182.016 18.7627 182.567 19.2404 183.429 19.2404H184.471C184.73 19.2404 184.917 19.4084 184.917 19.68C184.915 19.9587 184.727 20.1398 184.468 20.1398ZM180.156 20.1398H177.832V21.0452H180.124C181.102 21.0452 181.686 20.4507 181.686 19.6037C181.686 18.7961 181.162 18.3243 180.281 18.3243H179.231C178.972 18.3243 178.791 18.1564 178.791 17.8907C178.791 17.6191 178.972 17.438 179.231 17.438H181.2L181.602 16.5208H179.265C178.287 16.5208 177.704 17.1152 177.704 17.9288C177.704 18.7627 178.255 19.2404 179.117 19.2404H180.159C180.418 19.2404 180.605 19.4084 180.605 19.68C180.603 19.9587 180.415 20.1398 180.156 20.1398ZM177.171 17.4392V16.5219H173.544V21.0452H177.171V20.1338H174.633V19.2225H177.112V18.3172H174.633V17.438H177.171V17.4392ZM171.098 17.4452C171.486 17.4452 171.694 17.6965 171.694 18.0074C171.694 18.3172 171.486 18.5626 171.098 18.5626H169.822V17.4452H171.098ZM169.822 19.4155H170.334L171.688 21.044H173.041L171.532 19.3762C172.304 19.2332 172.762 18.6781 172.762 17.955C172.762 17.108 172.16 16.5208 171.195 16.5208H168.734V21.044H169.822V19.4155ZM167.05 18.0396C167.05 18.3434 166.855 18.5959 166.473 18.5959H165.172V17.4845H166.473C166.856 17.4845 167.05 17.7299 167.05 18.0396ZM164.084 16.5208V21.044H165.172V19.5513H166.538C167.528 19.5513 168.143 18.9057 168.143 18.0337C168.143 17.1354 167.542 16.5219 166.576 16.5219H164.084V16.5208ZM162.485 21.044H163.844L162.025 18.7627L163.831 16.5208H162.511L161.397 17.955L160.29 16.5208H158.931L160.744 18.7818L158.938 21.044H160.259L161.373 19.5894L162.485 21.044ZM158.71 17.4392V16.5219H155.083V21.0452H158.71V20.1338H156.172V19.2225H158.651V18.3172H156.172V17.438H158.71V17.4392Z" fill="#006FCF"/>
</g>
<path d="M179.75 9.32134L179.737 8.94609L179.963 9.32134L181.698 12.0291H182.968V7.50586H181.906V10.1231L181.919 10.459L181.718 10.1231L180.021 7.50586H178.687V12.0291H179.748V9.32134H179.75ZM175.411 9.19268L175.742 8.3457L176.072 9.19268L176.474 10.1945H175.016L175.411 9.19268ZM177.212 12.0291H178.435L176.5 7.50586H175.069L173.126 12.0291H174.286L174.668 11.0594H176.824L177.212 12.0291ZM172.465 12.0291H172.524L172.97 11.0665H172.639C171.894 11.0665 171.454 10.6019 171.454 9.80022V9.7359C171.454 9.01876 171.849 8.48269 172.626 8.48269H173.805V7.50705H172.536C171.136 7.50705 170.372 8.44457 170.372 9.72994V9.80737C170.374 11.1511 171.157 12.0231 172.465 12.0291ZM168.6 12.0291H169.687V10.0385V7.50586H168.6V10.0123V12.0291ZM166.313 8.43028C166.701 8.43028 166.909 8.68163 166.909 8.99255C166.909 9.30228 166.701 9.54768 166.313 9.54768H165.037V8.43028H166.313ZM165.037 10.4006H165.549L166.903 12.0291H168.257L166.748 10.3613C167.519 10.2195 167.979 9.66323 167.979 8.94013C167.979 8.09315 167.376 7.50586 166.411 7.50586H163.951V12.0291H165.038V10.4006H165.037ZM163.153 8.42313V7.50586H159.527V12.0291H163.153V11.1047H160.615V10.2064H163.095V9.30228H160.615V8.42313H163.153ZM154.133 8.94133L154.107 7.72029L155.363 12.0303H156.348L157.603 7.74649L157.577 8.93537V12.0291H158.633V7.50586H156.716L155.856 10.7103L154.988 7.50586H153.078V12.0291H154.133V8.94133ZM149.802 9.19268L150.133 8.3457L150.463 9.19268L150.864 10.1945H149.408L149.802 9.19268ZM151.601 12.0291H152.825L150.888 7.50586H149.457L147.515 12.0291H148.674L149.056 11.0594H151.212L151.601 12.0291Z" fill="#006FCF"/>
</g>
</svg>
