<svg width="229" height="25" viewBox="0 0 229 25" fill="none" xmlns="http://www.w3.org/2000/svg">
<path d="M20.6054 17.7569H9.23263L7.71155 20.7106H0L9.85167 2.40454H20.0748L30.4925 20.7106H22.1619L20.6054 17.7569ZM14.8394 6.87937L11.5673 13.176H18.1823L14.8394 6.87937Z" fill="#1E1E1C"/>
<path d="M42.359 2.40465L53.9264 12.8223V2.40465H61.4787V20.7107H53.8733L41.4039 9.60327V20.6931H33.8516V2.38696L42.359 2.40465Z" fill="#1E1E1C"/>
<path d="M73.6311 7.39229H65.0352V2.40454H89.8324V7.39229H81.2365V20.7106H73.6311V7.39229Z" fill="#1E1E1C"/>
<path d="M99.1538 20.7638H90.1865L99.9851 2.40465L108.723 2.38696L99.1538 20.7638Z" fill="#1E1E1C"/>
<path d="M120.466 2.40454V15.4753H134.279V20.7106H112.86V2.40454H120.466Z" fill="#1E1E1C"/>
<path d="M152.126 2.08594C164.985 2.08594 166.647 7.72811 166.647 11.1771V11.9199C166.647 15.3335 165.02 21.0995 152.126 21.0995H150.924C138.012 21.0995 136.385 15.3335 136.385 11.9199V11.1771C136.385 7.72811 138.012 2.10363 150.924 2.10363L152.126 2.08594ZM158.759 11.3363C158.759 9.39068 157.397 7.00293 151.507 7.00293C145.511 7.00293 144.255 9.39068 144.255 11.3363V11.6369C144.255 13.5648 145.617 16.1471 151.507 16.1471C157.397 16.1471 158.759 13.6709 158.759 11.69V11.3363Z" fill="#1E1E1C"/>
<path d="M209.592 13.8128L198.696 2.38696H207.805L213.606 8.71892L219.532 2.40465H227.862L217.197 13.8659V20.7107H209.592V13.8128Z" fill="#1E1E1C"/>
<path d="M184.989 2.08594H183.945C172.183 2.08594 169.831 7.23286 169.831 11.1594V11.8492C169.831 15.705 172.378 21.0818 183.273 21.0818H183.892C190.1 21.0818 192.594 18.9948 193.373 18.1988C193.744 18.8709 194.168 20.1444 194.31 20.7281H199.103V10.4165H184.352V13.9893H191.338C191.338 14.573 189.676 16.2709 184.529 16.2709C179.594 16.2709 177.702 13.9893 177.702 11.6369V11.3716C177.702 8.9662 179.223 6.84376 184.582 6.84376C189.481 6.84376 190.631 8.24103 190.949 8.91314H198.962C198.749 6.34852 196.839 2.08594 184.989 2.08594Z" fill="#1E1E1C"/>
</svg>
